<svg width="22" height="19" viewBox="0 0 22 19" fill="none" xmlns="http://www.w3.org/2000/svg">
<path d="M21.0834 1.75922C21.0834 1.75922 19.2336 2.85188 18.2051 3.16172C17.653 2.52694 16.9193 2.07702 16.1032 1.87282C15.2871 1.66861 14.428 1.71998 13.642 2.01997C12.856 2.31995 12.1812 2.85409 11.7086 3.55012C11.2361 4.24616 10.9888 5.07053 11.0001 5.91172V6.82838C9.38916 6.87016 7.79292 6.51288 6.35351 5.78838C4.9141 5.06387 3.67621 3.99463 2.75008 2.67588C2.75008 2.67588 -0.916585 10.9259 7.33341 14.5926C5.44556 15.874 3.19664 16.5166 0.916748 16.4259C9.16675 21.0092 19.2501 16.4259 19.2501 5.88422C19.2501 5.62938 19.2244 5.37455 19.1767 5.12338C20.1117 4.20122 21.0834 1.75922 21.0834 1.75922Z" stroke="white" stroke-width="1.6" stroke-linecap="round" stroke-linejoin="round"/>
</svg>
